<svg xmlns="http://www.w3.org/2000/svg" xmlns:xlink="http://www.w3.org/1999/xlink" width="32" height="32" viewBox="0 0 32 32">
  <defs>
    <clipPath id="clip-path">
      <rect id="mask-box" width="32" height="32" transform="translate(0 0.37)" fill="none"/>
    </clipPath>
  </defs>
  <g id="icon-laptop-on" transform="translate(0 -0.37)" clip-path="url(#clip-path)">
    <path id="icon_pass" data-name="icon/pass" d="M-2783-3036.26a2,2,0,0,1-2-2v-2.425a.5.5,0,0,1,.5-.5h1.4v-16.444a1,1,0,0,1,1-1h26.083a1,1,0,0,1,1,1v16.444h1.514a.5.5,0,0,1,.5.5v2.425a2,2,0,0,1-2,2Zm-1-2a1,1,0,0,0,1,1h28a1,1,0,0,0,1-1v-1.926h-10.673a2.292,2.292,0,0,1-2.268,1.991h-4.078a2.292,2.292,0,0,1-2.269-1.991H-2784Zm12.981-.935h4.078a1.282,1.282,0,0,0,1.238-.991h-6.554A1.282,1.282,0,0,0-2771.019-3039.195Zm13.633-17.49a.5.5,0,0,1,.5.5l.012,15h.861v-16.244a.2.2,0,0,0-.2-.2H-2781.9a.2.2,0,0,0-.2.2v16.244h.917v-15a.5.5,0,0,1,.5-.5Zm-22.794,15.5h22.306v-14.5h-22.306Zm2.749-7.3a4.4,4.4,0,0,1,4.4-4.4,4.4,4.4,0,0,1,4.4,4.4,4.4,4.4,0,0,1-4.4,4.4A4.4,4.4,0,0,1-2777.432-3048.481Zm5.973-.893a1.568,1.568,0,0,1-.447,1.1,2.35,2.35,0,0,1,1.227,2.051v.322a3.479,3.479,0,0,0,1.146-2.576,3.5,3.5,0,0,0-3.5-3.5,3.5,3.5,0,0,0-3.5,3.5,3.48,3.48,0,0,0,1.146,2.576v-.322a2.351,2.351,0,0,1,1.226-2.051,1.573,1.573,0,0,1-.446-1.1,1.574,1.574,0,0,1,1.572-1.574A1.575,1.575,0,0,1-2771.458-3049.374Zm4.472,3.346a.5.5,0,0,1-.5-.5.5.5,0,0,1,.5-.5h5.722a.5.5,0,0,1,.5.5.5.5,0,0,1-.5.5Zm0-1.963a.5.5,0,0,1-.5-.5.5.5,0,0,1,.5-.5h5.722a.5.5,0,0,1,.5.5.5.5,0,0,1-.5.5Zm0-1.963a.5.5,0,0,1-.5-.5.5.5,0,0,1,.5-.5h5.722a.5.5,0,0,1,.5.5.5.5,0,0,1-.5.5Z" transform="translate(2785 3064)" fill="#ef3b24"/>
  </g>
</svg>
