<svg xmlns="http://www.w3.org/2000/svg" xmlns:xlink="http://www.w3.org/1999/xlink" width="32" height="32" viewBox="0 0 32 32">
  <defs>
    <clipPath id="clip-path">
      <rect id="mask-box" width="32" height="32" transform="translate(0 0)" fill="none"/>
    </clipPath>
  </defs>
  <g id="icon-credit-card-on" transform="translate(0 0)" clip-path="url(#clip-path)">
    <path id="icon_pass" data-name="icon/pass" d="M-3408.8-3041.672a2.2,2.2,0,0,1-2.2-2.2v-14.4a2.2,2.2,0,0,1,2.2-2.2h2.076l.372-4.513a2.2,2.2,0,0,1,2.373-2.011l22.959,1.89a2.2,2.2,0,0,1,2.012,2.373l-1.181,14.348a2.2,2.2,0,0,1-2.373,2.012l-1-.082v2.578a2.2,2.2,0,0,1-2.2,2.2Zm-.7-2.5a1,1,0,0,0,1,1h22.437a1,1,0,0,0,1-1v-7.6H-3409.5Zm4.618-20.386-.336,4.091h19.454a2.2,2.2,0,0,1,2.2,2.2v10.313l.824.068a1,1,0,0,0,1.079-.915l1.132-13.75a1,1,0,0,0-.915-1.078l-22.36-1.841c-.028,0-.056,0-.084,0A1,1,0,0,0-3404.882-3064.559Zm-4.618,11.284h24.437v-1.75H-3409.5Zm0-4.694v1.445h24.437v-1.445a1,1,0,0,0-1-1H-3408.5A1,1,0,0,0-3409.5-3057.969Zm16.018,13.251a.6.6,0,0,1-.6-.6v-3.945a.6.6,0,0,1,.6-.6h6.078a.6.6,0,0,1,.6.6v3.945a.6.6,0,0,1-.6.6Zm.9-1.5h4.278v-2.146h-4.278Z" transform="translate(3411 3070)" fill="#ef3b24"/>
  </g>
</svg>
