<svg xmlns="http://www.w3.org/2000/svg" xmlns:xlink="http://www.w3.org/1999/xlink" width="32" height="32" viewBox="0 0 32 32">
  <defs>
    <clipPath id="clip-path">
      <rect id="mask-box" width="32" height="32" transform="translate(0 0)" fill="none"/>
    </clipPath>
  </defs>
  <g id="icon-calculator-on" transform="translate(0 0)" clip-path="url(#clip-path)">
    <path id="icon" d="M5.053,30A5.054,5.054,0,0,1,0,24.947V5.053A5.054,5.054,0,0,1,5.053,0H24.936A5.054,5.054,0,0,1,29.99,5.053V24.947A5.054,5.054,0,0,1,24.936,30ZM16,28h9.193a2.8,2.8,0,0,0,2.8-2.8V16H16ZM2,25.2A2.8,2.8,0,0,0,4.8,28H14V16H2ZM16,14H27.99V4.8a2.8,2.8,0,0,0-2.8-2.8H16ZM2,4.8V14H14V2H4.8A2.8,2.8,0,0,0,2,4.8ZM9.425,24.875,8.016,23.467,6.607,24.875a1,1,0,0,1-1.414-1.414L6.6,22.053,5.193,20.643a1,1,0,0,1,1.414-1.415l1.409,1.409,1.408-1.409a1,1,0,0,1,1.415,0h0a1,1,0,0,1,0,1.415L9.431,22.053l1.409,1.408a1,1,0,0,1,0,1.414h0a1,1,0,0,1-1.415,0Zm9.6.177a1,1,0,0,1,0-2h5.986a1,1,0,0,1,0,2Zm0-4a1,1,0,1,1,0-2h5.986a1,1,0,1,1,0,2ZM7.017,11.045V9.052H5.023a1,1,0,0,1,0-2H7.017V5.06a1,1,0,1,1,2,0V7.052h1.992a1,1,0,1,1,0,2H9.016v1.992a1,1,0,1,1-2,0ZM19.023,9.052a1,1,0,0,1,0-2h5.986a1,1,0,0,1,0,2Z" transform="translate(1 1)" fill="#ef3b24"/>
  </g>
</svg>
