<svg xmlns="http://www.w3.org/2000/svg" xmlns:xlink="http://www.w3.org/1999/xlink" width="32" height="32" viewBox="0 0 32 32">
  <defs>
    <clipPath id="clip-path">
      <rect id="mask-box" width="32" height="32" transform="translate(0 0)" fill="none"/>
    </clipPath>
    <clipPath id="clip-path-2">
      <rect id="mask-box-2" data-name="mask-box" width="10" height="10" transform="translate(0 0)" fill="none"/>
    </clipPath>
  </defs>
  <g id="icon-laptop-check-on" transform="translate(0 0)" clip-path="url(#clip-path)">
    <path id="icon_pass" data-name="icon/pass" d="M-3108.5-3034.859a3.5,3.5,0,0,1-3.5-3.5v-.312a.99.99,0,0,1,.887-.977V-3057.7a2.3,2.3,0,0,1,2.3-2.3h25.538a2.3,2.3,0,0,1,2.3,2.3v18.035a1,1,0,0,1,.977,1v.313a3.5,3.5,0,0,1-3.5,3.5Zm-2.5-3.5a2.5,2.5,0,0,0,2.5,2.5h25a2.5,2.5,0,0,0,2.5-2.5v-.312h-11.013v.136a1.764,1.764,0,0,1-1.763,1.763h-4.535a1.763,1.763,0,0,1-1.761-1.763v-.136H-3111Zm11.928-.177a.763.763,0,0,0,.761.763h4.535a.764.764,0,0,0,.763-.763v-.136h-6.06Zm15.551-19.62a.7.7,0,0,1,.7.7v17.784h.847V-3057.7a1.3,1.3,0,0,0-1.3-1.3h-25.538a1.3,1.3,0,0,0-1.3,1.3v18.031h.85v-17.784a.7.7,0,0,1,.7-.7h10.578a.631.631,0,0,1,.623.563,1.327,1.327,0,0,0,.1.437,1.312,1.312,0,0,0,1.228.867,1.313,1.313,0,0,0,1.229-.867,1.469,1.469,0,0,0,.078-.437.606.606,0,0,1,.531-.562h10.675Zm-24.741,18.484h24.44v-17.484h-9.937a2.319,2.319,0,0,1-2.274,1.867,2.319,2.319,0,0,1-2.273-1.867h-9.955Zm11.761-17.959a.472.472,0,0,1,.472-.472.471.471,0,0,1,.471.472.471.471,0,0,1-.471.471A.472.472,0,0,1-3096.5-3057.629Z" transform="translate(3112 3063)" fill="#ef3b24"/>
    <g id="icon-check" transform="translate(11 10)" clip-path="url(#clip-path-2)">
      <path id="pass" d="M8.507.331l-4.4,5.855L1.414,3.509a.833.833,0,0,0-1.171,0,.819.819,0,0,0,0,1.164L3.4,7.807a1.1,1.1,0,0,0,1.65-.118L9.835,1.315A.819.819,0,0,0,9.667.163a.834.834,0,0,0-1.16.168" transform="translate(0 -0.001)" fill="#ef3b24"/>
    </g>
  </g>
</svg>
